<?xml version="1.0" encoding="utf-8"?>
<!-- Generator: Adobe Illustrator 19.0.1, SVG Export Plug-In . SVG Version: 6.00 Build 0)  -->
<svg version="1.1" id="图层_1" xmlns="http://www.w3.org/2000/svg" xmlns:xlink="http://www.w3.org/1999/xlink" x="0px" y="0px"
	 viewBox="-191 399.4 211.6 42.5" style="enable-background:new -191 399.4 211.6 42.5;" xml:space="preserve">
<style type="text/css">
	.st0{fill:#666666;}
	.st1{font-family:'AdobeSongStd-Light-GBpc-EUC-H';}
	.st2{font-size:16px;}
	.st3{fill:none;}
	.st4{fill:none;stroke:url(#SVGID_1_);stroke-width:2;stroke-miterlimit:10;}
	.st5{fill:url(#SVGID_4_);}
	.st6{fill:url(#SVGID_5_);}
	.st7{fill:url(#SVGID_6_);}
	.st8{fill:#FFFFFF;}
</style>
<text transform="matrix(1 0 0 1 -155.1209 428.1826)" class="st0 st1 st2">全国心脑远程联盟</text>
<rect x="-150.3" y="428.7" class="st3" width="197.2" height="21.3"/>
<rect x="-40.3" y="409.5" class="st3" width="61.2" height="17.2"/>
<rect x="-40.3" y="418.6" class="st3" width="52.8" height="17.8"/>
<linearGradient id="SVGID_1_" gradientUnits="userSpaceOnUse" x1="-190" y1="420.7401" x2="-157.7002" y2="420.7401">
	<stop  offset="0" style="stop-color:#B50E5F"/>
	<stop  offset="1" style="stop-color:#D5142A"/>
</linearGradient>
<path class="st4" d="M-173.4,435.9c-8.4,0.2-15.3-6.3-15.6-14.7c-0.2-8.4,6.3-15.3,14.7-15.6c8.4-0.2,15.3,6.3,15.6,14.7
	C-158.5,428.7-165,435.6-173.4,435.9"/>
<path id="SVGID_x5F_2_x5F_" class="st3" d="M-181.1,410.7c5.7-4,13.5-2.6,17.5,3.1c4,5.7,2.6,13.5-3.1,17.5s-13.5,2.6-17.5-3.1
	C-188.2,422.5-186.8,414.7-181.1,410.7z"/>
<text><textPath  xlink:href="#SVGID_x5F_2_x5F_" startOffset="79.7527%">
<tspan  style="fill:#B6232D; font-family:'MicrosoftYaHeiLight'; font-size:2.1378px; letter-spacing:500.2;">全国心脑远程联盟</tspan><tspan  class="st1" style="fill:#B6232D; font-size:2.7036px; letter-spacing:500.2;">    </tspan><tspan  class="st1" style="fill:#B6232D; font-size:1.6522px; letter-spacing:500.2;">    </tspan></textPath>
</text>
<path id="SVGID_x5F_3_x5F_" class="st3" d="M-166.2,432.3c-6,4.3-14.5,2.6-18.8-3.4s-2.9-14.4,3.1-18.7s15-2.6,19.3,3.5
	S-160.2,428-166.2,432.3z"/>
<text><textPath  xlink:href="#SVGID_x5F_3_x5F_" startOffset="79.7527%">
<tspan  style="fill:#B6232D; font-family:'Centaur'; font-size:1.3743px;">NATIONAL CARDIOVASCULAR  TELEMEDICINE ALLIANCE</tspan></textPath>
</text>
<linearGradient id="SVGID_4_" gradientUnits="userSpaceOnUse" x1="-187.3426" y1="420.5177" x2="-186.9097" y2="420.5177">
	<stop  offset="0" style="stop-color:#B50E5F"/>
	<stop  offset="1" style="stop-color:#D5142A"/>
</linearGradient>
<circle class="st5" cx="-187.1" cy="420.5" r="0.2"/>
<linearGradient id="SVGID_5_" gradientUnits="userSpaceOnUse" x1="-160.707" y1="420.5177" x2="-160.2742" y2="420.5177">
	<stop  offset="0" style="stop-color:#B50E5F"/>
	<stop  offset="1" style="stop-color:#D5142A"/>
</linearGradient>
<circle class="st6" cx="-160.5" cy="420.5" r="0.2"/>
<linearGradient id="SVGID_6_" gradientUnits="userSpaceOnUse" x1="-185.7019" y1="420.9924" x2="-162.405" y2="420.9924">
	<stop  offset="0" style="stop-color:#B50E5F"/>
	<stop  offset="1" style="stop-color:#D5142A"/>
</linearGradient>
<path class="st7" d="M-174.1,409.3c-6.4,0-11.6,5.2-11.6,11.6s5.2,11.6,11.6,11.6c6.4,0,11.6-5.2,11.6-11.6
	S-167.6,409.3-174.1,409.3z"/>
<path class="st8" d="M-165.9,418.5c-0.5-2.8-3.6-4.5-6.3-3.5c-0.8,0.3-1.4,0.8-2,1.5c-0.1-0.1-0.1-0.1-0.1-0.1
	c-1.4-1.6-3.6-2.1-5.6-1.2c-1.7,0.8-3.1,2.8-2.5,5.4c0.4,1.6,1.2,3,2.4,4.2c1.4,1.5,3,2.7,4.8,3.7c0.6,0.4,1.2,0.3,1.8,0
	c1.4-0.9,2.8-1.8,4-2.9c1.1-1,2.1-2.1,2.8-3.4C-166,421-165.6,419.8-165.9,418.5z M-166.7,422.3c-1.5,0-3.9,0-5.4,0
	c-0.1,0-0.2,0-0.3,0.2c-0.2,0.3-0.3,0.7-0.5,1c-0.1,0.1-0.2,0.2-0.3,0.2c-0.1,0-0.2-0.2-0.2-0.3c-0.1-0.4-0.2-0.9-0.3-1.4
	c-0.2,0.7-0.3,1.3-0.5,1.9c-0.2,0.7-0.3,1.4-0.5,2.1c0,0.1-0.1,0.3-0.2,0.3c-0.2,0-0.2-0.1-0.2-0.3c-0.2-1.6-0.4-3.2-0.7-4.8
	c-0.2,0.5-0.3,1.1-0.5,1.6c-0.1,0.3-0.1,0.6-0.2,0.8c0,0.1-0.2,0.2-0.2,0.2c-0.1,0-0.2-0.1-0.3-0.2c-0.2-0.7-0.4-1.4-0.6-2
	c0-0.1-0.1-0.2-0.1-0.4c-0.1,0.3-0.3,0.5-0.4,0.8c-0.1,0.3-0.3,0.4-0.6,0.4c-0.7,0-2.9,0-2.9,0c0-0.1-0.2-0.4-0.2-0.5
	c0,0,1.3,0,1.7,0c0.4,0,0.9,0,1.3,0c0.2,0,0.3,0,0.4-0.2c0.2-0.4,0.4-1,0.6-1.4c0.1-0.1,0.1-0.3,0.3-0.2c0.1,0,0.2,0.2,0.2,0.3
	c0.2,0.7,0.4,1.4,0.6,2c0,0,0,0.1,0,0.1c0.1-0.5,0.3-0.9,0.4-1.3c0.1-0.5,0.3-0.8,0.4-1.3c0-0.1,0-0.1,0.1-0.2
	c0.1-0.1,0.2-0.2,0.3-0.1c0.1,0,0.2,0.1,0.2,0.2c0.1,0.4,0.1,0.9,0.2,1.3c0.1,0.9,0.2,1.5,0.3,2.4c0,0.3,0.1,0.6,0.1,0.9
	c0.2-0.8,0.4-1.5,0.5-2.3c0.1-0.5,0.2-1,0.4-1.5c0-0.1,0.2-0.2,0.2-0.2c0.1,0,0.2,0.1,0.2,0.2c0,0,0,0.1,0,0.1
	c0.1,0.5,0.2,1.2,0.3,1.8c0,0,0,0.1,0,0.1c0.1-0.2,0.2-0.4,0.3-0.6c0.1-0.1,0.2-0.2,0.3-0.2c1.8,0,3.5,0,5.3,0c0,0,0.6,0,0.6,0
	L-166.7,422.3z"/>
</svg>
